HIERARCHY
ROOT Hips
{
	OFFSET 0.000000 83.214638 0.000000
	CHANNELS 6 Xposition Yposition Zposition Xrotation Yrotation Zrotation
	JOINT Pelvis
	{
		OFFSET 0.000000 0.000000 0.000000
		CHANNELS 3 Xrotation Yrotation Zrotation
		JOINT LeftUpLeg
		{
			OFFSET 8.479700 -4.795502 -0.379100
			CHANNELS 3 Xrotation Yrotation Zrotation
			JOINT LeftLeg
			{
				OFFSET 0.024144 -32.555107 0.112900
				CHANNELS 3 Xrotation Yrotation Zrotation
				JOINT LeftFoot
				{
					OFFSET -0.024144 -32.638630 -3.012600
					CHANNELS 3 Xrotation Yrotation Zrotation
					JOINT LeftToeBase
					{
						OFFSET 0.970200 -13.225400 11.864200
						CHANNELS 3 Xrotation Yrotation Zrotation
						End Site
						{
							OFFSET 0.000000 12.319262 0.000000
						}
					}
					JOINT LFootTongue
					{
						OFFSET 1.142400 -1.059800 6.665200
						CHANNELS 3 Xrotation Yrotation Zrotation
						End Site
						{
							OFFSET 0.000000 12.319262 0.000000
						}
					}
				}
				JOINT LeftPantLeg
				{
					OFFSET 0.918482 -16.533964 -2.284700
					CHANNELS 3 Xrotation Yrotation Zrotation
					End Site
					{
						OFFSET 0.350399 24.744368 0.000000
					}
				}
			}
		}
		JOINT RightUpLeg
		{
			OFFSET -8.479700 -4.795502 -0.379100
			CHANNELS 3 Xrotation Yrotation Zrotation
			JOINT RightLeg
			{
				OFFSET -0.023144 -32.555092 0.112900
				CHANNELS 3 Xrotation Yrotation Zrotation
				JOINT RightFoot
				{
					OFFSET 0.023144 -32.638641 -3.012700
					CHANNELS 3 Xrotation Yrotation Zrotation
					JOINT RightToeBase
					{
						OFFSET -0.970200 -13.225400 11.864200
						CHANNELS 3 Xrotation Yrotation Zrotation
						End Site
						{
							OFFSET 0.000000 12.319244 0.000000
						}
					}
					JOINT RFootTongue
					{
						OFFSET -1.142200 -1.059800 6.665200
						CHANNELS 3 Xrotation Yrotation Zrotation
						End Site
						{
							OFFSET 0.000000 12.319243 0.000000
						}
					}
				}
				JOINT RightPantLeg
				{
					OFFSET -0.919482 -16.533978 -2.284800
					CHANNELS 3 Xrotation Yrotation Zrotation
					End Site
					{
						OFFSET -0.350400 24.744419 0.000000
					}
				}
			}
		}
	}
	JOINT Spine
	{
		OFFSET 0.000000 7.722000 1.166200
		CHANNELS 3 Xrotation Yrotation Zrotation
		JOINT Spine1
		{
			OFFSET 0.000000 12.024101 0.248800
			CHANNELS 3 Xrotation Yrotation Zrotation
			JOINT Spine2
			{
				OFFSET 0.000000 11.502998 -0.491200
				CHANNELS 3 Xrotation Yrotation Zrotation
				JOINT Neck
				{
					OFFSET 0.000000 18.430702 -3.123100
					CHANNELS 3 Xrotation Yrotation Zrotation
					JOINT Head
					{
						OFFSET 0.000000 9.051102 1.034000
						CHANNELS 3 Xrotation Yrotation Zrotation
						JOINT HairB
						{
							OFFSET 0.208400 24.786102 24.822300
							CHANNELS 3 Xrotation Yrotation Zrotation
							End Site
							{
								OFFSET 0.000000 32.263779 0.000000
							}
						}
						JOINT HairA
						{
							OFFSET -7.081100 24.428299 23.196600
							CHANNELS 3 Xrotation Yrotation Zrotation
							End Site
							{
								OFFSET 0.000000 32.263779 0.000000
							}
						}
						JOINT Hat
						{
							OFFSET 16.728800 15.048294 -15.439601
							CHANNELS 3 Xrotation Yrotation Zrotation
							End Site
							{
								OFFSET 0.000000 32.263779 0.000000
							}
						}
					}
				}
				JOINT LeftShoulder
				{
					OFFSET 6.197800 13.665199 -4.064700
					CHANNELS 3 Xrotation Yrotation Zrotation
					JOINT LeftArm
					{
						OFFSET 7.778100 -0.187103 -1.709300
						CHANNELS 3 Xrotation Yrotation Zrotation
						JOINT LeftForeArm
						{
							OFFSET 22.049376 0.000000 0.000000
							CHANNELS 3 Xrotation Yrotation Zrotation
							JOINT LeftHand
							{
								OFFSET 23.009392 0.000000 0.000000
								CHANNELS 3 Xrotation Yrotation Zrotation
								JOINT LeftHandThumb1
								{
									OFFSET 3.507191 -2.063065 3.133727
									CHANNELS 3 Xrotation Yrotation Zrotation
									JOINT LeftHandThumb2
									{
										OFFSET 3.101337 -1.790558 1.790558
										CHANNELS 3 Xrotation Yrotation Zrotation
										JOINT LeftHandThumb3
										{
											OFFSET 3.058640 -1.765907 1.765906
											CHANNELS 3 Xrotation Yrotation Zrotation
											End Site
											{
												OFFSET -0.415260 3.926476 -0.049563
											}
										}
									}
								}
								JOINT LeftHandIndex1
								{
									OFFSET 11.334419 -0.901459 3.706815
									CHANNELS 3 Xrotation Yrotation Zrotation
									JOINT LeftHandIndex2
									{
										OFFSET 3.283112 0.000000 0.000000
										CHANNELS 3 Xrotation Yrotation Zrotation
										JOINT LeftHandIndex3
										{
											OFFSET 3.323853 0.000000 0.000000
											CHANNELS 3 Xrotation Yrotation Zrotation
											End Site
											{
												OFFSET -1.135597 3.097809 0.402452
											}
										}
									}
								}
								JOINT LeftHandMiddle1
								{
									OFFSET 11.335861 0.000000 0.000000
									CHANNELS 3 Xrotation Yrotation Zrotation
									JOINT LeftHandMiddle2
									{
										OFFSET 3.410492 0.000000 0.000000
										CHANNELS 3 Xrotation Yrotation Zrotation
										JOINT LeftHandMiddle3
										{
											OFFSET 3.312172 0.000000 0.000000
											CHANNELS 3 Xrotation Yrotation Zrotation
											End Site
											{
												OFFSET -1.150200 3.080154 0.400270
											}
										}
									}
								}
								JOINT LeftHandRing1
								{
									OFFSET 11.514786 -0.013176 -3.003090
									CHANNELS 3 Xrotation Yrotation Zrotation
									JOINT LeftHandRing2
									{
										OFFSET 3.053307 0.000000 0.000000
										CHANNELS 3 Xrotation Yrotation Zrotation
										JOINT LeftHandRing3
										{
											OFFSET 3.295807 0.000000 0.000000
											CHANNELS 3 Xrotation Yrotation Zrotation
											End Site
											{
												OFFSET -1.281006 3.013344 0.375733
											}
										}
									}
								}
								JOINT LeftHandPinky1
								{
									OFFSET 10.518692 -0.960396 -5.730441
									CHANNELS 3 Xrotation Yrotation Zrotation
									JOINT LeftHandPinky2
									{
										OFFSET 2.861649 0.000000 0.000000
										CHANNELS 3 Xrotation Yrotation Zrotation
										JOINT LeftHandPinky3
										{
											OFFSET 2.863380 0.000000 0.000000
											CHANNELS 3 Xrotation Yrotation Zrotation
											End Site
											{
												OFFSET -0.843597 2.711159 0.369971
											}
										}
									}
								}
							}
							JOINT LSleeve
							{
								OFFSET 6.676277 -0.344902 -1.011730
								CHANNELS 3 Xrotation Yrotation Zrotation
								End Site
								{
									OFFSET 0.000000 14.885353 0.000000
								}
							}
						}
					}
				}
				JOINT RightShoulder
				{
					OFFSET -6.197800 13.665199 -4.064700
					CHANNELS 3 Xrotation Yrotation Zrotation
					JOINT RightArm
					{
						OFFSET -7.778100 -0.187103 -1.709300
						CHANNELS 3 Xrotation Yrotation Zrotation
						JOINT RightForeArm
						{
							OFFSET -22.049376 0.000000 0.000000
							CHANNELS 3 Xrotation Yrotation Zrotation
							JOINT RightHand
							{
								OFFSET -23.009392 0.000000 0.000000
								CHANNELS 3 Xrotation Yrotation Zrotation
								JOINT RightHandThumb1
								{
									OFFSET -3.507191 -2.063065 3.133727
									CHANNELS 3 Xrotation Yrotation Zrotation
									JOINT RightHandThumb2
									{
										OFFSET -3.101337 -1.790558 1.790558
										CHANNELS 3 Xrotation Yrotation Zrotation
										JOINT RightHandThumb3
										{
											OFFSET -3.058640 -1.765907 1.765906
											CHANNELS 3 Xrotation Yrotation Zrotation
											End Site
											{
												OFFSET 0.415260 3.926476 -0.049563
											}
										}
									}
								}
								JOINT RightHandIndex1
								{
									OFFSET -11.334419 -0.901459 3.706815
									CHANNELS 3 Xrotation Yrotation Zrotation
									JOINT RightHandIndex2
									{
										OFFSET -3.283112 0.000000 0.000000
										CHANNELS 3 Xrotation Yrotation Zrotation
										JOINT RightHandIndex3
										{
											OFFSET -3.323853 0.000000 0.000000
											CHANNELS 3 Xrotation Yrotation Zrotation
											End Site
											{
												OFFSET 1.135597 3.097809 0.402452
											}
										}
									}
								}
								JOINT RightHandMiddle1
								{
									OFFSET -11.335861 0.000000 0.000000
									CHANNELS 3 Xrotation Yrotation Zrotation
									JOINT RightHandMiddle2
									{
										OFFSET -3.410492 0.000000 0.000000
										CHANNELS 3 Xrotation Yrotation Zrotation
										JOINT RightHandMiddle3
										{
											OFFSET -3.312172 0.000000 0.000000
											CHANNELS 3 Xrotation Yrotation Zrotation
											End Site
											{
												OFFSET 1.150200 3.080154 0.400270
											}
										}
									}
								}
								JOINT RightHandRing1
								{
									OFFSET -11.514786 -0.013176 -3.003090
									CHANNELS 3 Xrotation Yrotation Zrotation
									JOINT RightHandRing2
									{
										OFFSET -3.053307 0.000000 0.000000
										CHANNELS 3 Xrotation Yrotation Zrotation
										JOINT RightHandRing3
										{
											OFFSET -3.295807 0.000000 0.000000
											CHANNELS 3 Xrotation Yrotation Zrotation
											End Site
											{
												OFFSET 1.281006 3.013344 0.375733
											}
										}
									}
								}
								JOINT RightHandPinky1
								{
									OFFSET -10.518692 -0.960396 -5.730441
									CHANNELS 3 Xrotation Yrotation Zrotation
									JOINT RightHandPinky2
									{
										OFFSET -2.861649 0.000000 0.000000
										CHANNELS 3 Xrotation Yrotation Zrotation
										JOINT RightHandPinky3
										{
											OFFSET -2.863380 0.000000 0.000000
											CHANNELS 3 Xrotation Yrotation Zrotation
											End Site
											{
												OFFSET 0.843597 2.711159 0.369971
											}
										}
									}
								}
							}
							JOINT RSleeve
							{
								OFFSET -6.676277 -0.344902 -1.011730
								CHANNELS 3 Xrotation Yrotation Zrotation
								End Site
								{
									OFFSET 0.000000 14.885353 0.000000
								}
							}
						}
					}
				}
				JOINT Backpack
				{
					OFFSET 0.000000 -2.471497 36.677502
					CHANNELS 3 Xrotation Yrotation Zrotation
					End Site
					{
						OFFSET 0.000000 20.427315 0.000000
					}
				}
				JOINT Hood
				{
					OFFSET 0.000000 18.754097 -10.431000
					CHANNELS 3 Xrotation Yrotation Zrotation
					JOINT Hood1
					{
						OFFSET 0.000000 -5.011002 -7.685901
						CHANNELS 3 Xrotation Yrotation Zrotation
						End Site
						{
							OFFSET 0.000000 9.175140 0.000000
						}
					}
				}
				JOINT LHoodieString
				{
					OFFSET 5.250500 16.397697 3.089900
					CHANNELS 3 Xrotation Yrotation Zrotation
					JOINT LHoodieString1
					{
						OFFSET 0.257700 -6.364304 3.694600
						CHANNELS 3 Xrotation Yrotation Zrotation
						JOINT LHoodieString2
						{
							OFFSET 0.000000 -9.643799 2.679100
							CHANNELS 3 Xrotation Yrotation Zrotation
							End Site
							{
								OFFSET 0.000000 10.009018 0.000000
							}
						}
					}
				}
				JOINT RHoodieString
				{
					OFFSET -5.250500 16.397697 3.089900
					CHANNELS 3 Xrotation Yrotation Zrotation
					JOINT RHoodieString1
					{
						OFFSET -0.257700 -6.364304 3.694600
						CHANNELS 3 Xrotation Yrotation Zrotation
						JOINT RHoodieString2
						{
							OFFSET 0.000000 -9.643799 2.679100
							CHANNELS 3 Xrotation Yrotation Zrotation
							End Site
							{
								OFFSET 0.000000 10.009018 0.000000
							}
						}
					}
				}
			}
			JOINT LBackpack_Strap
			{
				OFFSET 15.223200 -7.719803 -6.610900
				CHANNELS 3 Xrotation Yrotation Zrotation
				End Site
				{
					OFFSET 0.000000 16.040596 0.000000
				}
			}
			JOINT RBackpack_Strap
			{
				OFFSET -15.223000 -7.719803 -6.610900
				CHANNELS 3 Xrotation Yrotation Zrotation
				End Site
				{
					OFFSET 0.000000 16.040596 0.000000
				}
			}
		}
	}
	JOINT BoyFacialAnim_Joint
	{
		OFFSET 1.000000 -82.208099 -1.550900
		CHANNELS 3 Xrotation Yrotation Zrotation
		End Site
		{
			OFFSET 0.000000 30.012791 0.000000
		}
	}
}
MOTION
Frames: 4
Frame Time: 0.033333
-0.284347 94.368378 72.358826 0.427245 -56.787760 -3.466796 -0.000000 -0.000001 0.000000 -63.707736 15.455200 48.341835 115.589982 -10.241167 -2.408097 5.591779 -6.256758 3.764026 -0.000001 0.000000 -0.000002 -0.000001 0.000000 -0.000002 0.000002 0.000000 -0.000000 -54.028026 -1.379183 -29.283012 115.351800 -9.193979 -2.522433 15.549918 -15.183379 13.986840 0.000000 -0.000002 0.000001 0.000000 -0.000002 0.000001 -0.000000 -0.000000 0.000000 13.408550 12.691986 4.815379 3.794967 3.769561 1.056917 3.803626 3.779008 1.017906 -1.666941 5.807636 0.211645 -18.054579 28.138197 -13.177376 0.000000 -0.000001 -0.000000 0.000000 -0.000001 -0.000000 0.000000 -0.000001 -0.000000 -0.020928 3.503470 0.342464 -48.895443 17.040385 -83.035382 0.000045 -109.060192 0.000046 -110.733773 -12.145595 14.711497 4.324602 9.679108 3.951342 19.012800 -1.427863 5.172396 0.000000 -0.000001 -0.000001 -0.047088 4.082696 -35.563661 2.842992 5.020925 -59.018169 -0.000004 -0.000002 -0.000002 0.557411 5.600756 -52.000211 3.130915 5.182262 -62.255275 0.000001 -0.000003 -0.000002 0.003853 5.877773 -62.446336 3.972989 5.542451 -71.247554 -0.000003 0.000001 -0.000000 -6.354664 4.900005 -73.831128 3.278768 5.257091 -63.880389 -0.000001 0.000003 0.000000 0.000001 0.000003 -0.000000 0.569014 3.547796 5.185723 -39.946979 45.134334 63.835897 0.000065 116.573994 -0.000069 -8.438729 -19.704520 19.539923 -13.087118 -0.183261 12.808258 12.537575 -15.720068 -17.918129 0.000002 0.000003 -0.000002 0.008623 3.818717 0.619430 0.554840 -2.206459 28.226926 -0.000003 -0.000001 0.000005 3.292402 -6.882606 57.958615 6.267581 -4.370454 110.250625 0.000003 0.000003 0.000000 -1.398976 -4.313851 62.004526 5.434890 -4.591911 99.623500 -0.000001 0.000000 0.000006 -1.523566 -4.584014 65.713954 3.582987 -4.531867 76.650268 0.000002 -0.000000 -0.000002 0.000002 0.000005 -0.000002 -0.000000 -0.000001 -0.000001 -0.000000 -0.000001 -0.000001 -0.000000 -0.000001 -0.000001 -0.000000 -0.000001 -0.000001 -0.000000 -0.000001 -0.000002 -0.000000 -0.000003 0.000001 -0.000000 -0.000001 -0.000001 -0.000000 -0.000001 -0.000002 -0.000000 -0.000003 0.000001 0.000001 0.000001 -0.000000 0.000001 0.000001 -0.000000 -0.000000 -0.000001 0.000000 
0.594228 93.828346 75.913162 3.337098 -58.016351 1.275093 -0.000000 0.000001 0.000000 -71.279690 12.288799 49.233305 109.566883 -10.327593 -1.872588 1.842625 -3.885418 2.529837 0.000001 0.000000 -0.000000 0.000001 0.000000 -0.000000 -0.000000 0.000001 0.000000 -65.003102 0.802939 -34.551653 122.942763 -9.067207 -2.601374 15.024579 -10.259943 14.142198 0.000001 -0.000002 -0.000001 0.000001 -0.000002 -0.000001 0.000001 0.000001 -0.000000 15.085362 13.545135 2.381445 4.441706 4.233940 0.595828 4.458962 4.228401 0.555044 -1.048962 5.890524 -0.411095 -18.776021 28.376057 -12.361900 0.000000 0.000000 0.000000 0.000000 0.000000 0.000000 0.000000 0.000000 0.000000 -0.020933 3.503458 0.342456 -49.150058 16.715846 -82.743234 0.000229 -108.929858 0.000240 -112.241134 -13.062767 12.776820 4.290741 9.683969 3.998733 19.003555 -1.423900 5.125275 -0.000000 -0.000000 0.000002 -0.041546 4.090654 -35.566636 2.840962 5.019700 -58.995008 0.000001 0.000003 -0.000001 0.564533 5.608289 -52.040267 3.138032 5.185994 -62.333987 -0.000001 0.000002 0.000004 0.005631 5.880953 -62.477912 3.971291 5.541884 -71.229830 -0.000001 0.000000 0.000005 -6.349193 4.907314 -73.859057 3.277891 5.256662 -63.870895 0.000003 -0.000000 0.000003 0.000001 0.000000 -0.000002 0.556283 3.320687 4.802389 -41.413687 45.033807 64.377388 0.000098 116.309311 -0.000101 -7.316344 -19.195589 20.634268 -12.816100 -0.275854 12.704900 12.649611 -15.830645 -17.966768 0.000001 0.000001 0.000001 -0.017816 3.687017 0.875375 0.556064 -2.208705 28.258299 -0.000002 -0.000000 0.000002 3.280248 -6.880082 57.760458 6.268071 -4.370265 110.256984 -0.000001 0.000002 -0.000002 -1.435254 -4.288885 61.940622 5.434747 -4.591924 99.621936 -0.000000 -0.000000 0.000002 -1.563938 -4.569226 65.751219 3.584238 -4.532176 76.666080 -0.000000 0.000000 -0.000003 0.000001 0.000002 0.000001 0.000001 0.000000 0.000001 0.000001 0.000000 0.000001 0.000001 0.000000 0.000001 0.000001 0.000000 0.000001 0.000001 0.000000 0.000001 -0.000000 0.000001 -0.000002 0.000001 0.000000 0.000001 0.000001 0.000000 0.000001 -0.000000 0.000001 -0.000002 -0.000000 0.000002 -0.000000 -0.000000 0.000002 -0.000000 -0.000000 0.000001 0.000000 
1.317811 92.651398 79.502838 5.567233 -58.775998 5.509329 0.000000 0.000001 -0.000000 -74.033042 13.560683 48.796524 97.647601 -10.346657 -1.340908 -4.189927 -0.347382 2.658034 0.000001 -0.000001 0.000001 0.000001 -0.000001 0.000001 -0.000001 0.000001 -0.000000 -75.530506 2.434978 -38.089489 128.611779 -9.328064 -3.245031 14.126161 -7.812602 13.938827 0.000002 0.000003 -0.000001 0.000002 0.000003 -0.000001 0.000003 0.000003 0.000002 16.614266 14.367178 0.322117 5.097297 4.816418 0.123458 5.127995 4.790410 0.081488 -0.999832 5.502940 -0.523827 -19.199629 27.617026 -12.567839 0.000000 -0.000000 0.000000 0.000000 -0.000000 0.000000 0.000000 -0.000000 0.000000 -0.020926 3.503433 0.342464 -49.434635 15.562398 -82.975938 -0.000091 -108.440216 -0.000098 -112.876594 -13.878339 11.578441 4.255903 9.688744 4.044523 18.995161 -1.420054 5.082660 0.000001 -0.000001 0.000001 -0.036308 4.098300 -35.571571 2.839107 5.018615 -58.973923 -0.000002 -0.000000 -0.000002 0.571417 5.615678 -52.081593 3.145560 5.189914 -62.417130 -0.000000 -0.000004 -0.000000 0.007283 5.883875 -62.506927 3.969713 5.541356 -71.213588 -0.000001 -0.000001 -0.000000 -6.344114 4.913969 -73.884410 3.277064 5.256275 -63.861825 0.000002 -0.000002 -0.000000 0.000000 -0.000001 0.000001 0.523712 2.714896 4.286482 -42.070776 44.337630 64.682383 0.000064 116.558107 -0.000063 -6.910073 -19.070906 21.250431 -12.509113 -0.375971 12.600738 12.776649 -15.944537 -18.016033 -0.000001 0.000001 0.000001 -0.044988 3.552894 1.149419 0.557557 -2.211508 28.297573 0.000000 0.000001 0.000004 3.268526 -6.878026 57.552813 6.268587 -4.370066 110.263938 0.000001 0.000002 0.000000 -1.474732 -4.261368 61.868420 5.434668 -4.591962 99.620549 0.000001 0.000003 0.000003 -1.608285 -4.552505 65.786019 3.586297 -4.532654 76.692164 -0.000001 0.000001 -0.000003 0.000000 -0.000003 -0.000001 0.000003 -0.000000 -0.000001 0.000003 -0.000000 -0.000001 0.000003 -0.000000 -0.000001 0.000003 -0.000000 -0.000001 0.000003 -0.000000 -0.000001 0.000003 -0.000002 0.000001 0.000003 -0.000000 -0.000001 0.000003 -0.000000 -0.000001 0.000003 -0.000002 0.000001 0.000001 0.000003 -0.000000 0.000001 0.000003 -0.000000 0.000000 0.000001 -0.000000 
1.826071 90.605530 83.401337 6.421087 -59.713414 7.861950 -0.000000 0.000000 -0.000000 -72.705929 18.076768 47.966550 80.209985 -10.293808 -0.354394 -5.827140 0.817531 4.073330 -0.000000 0.000002 -0.000001 -0.000000 0.000002 -0.000000 -0.000000 0.000001 -0.000001 -84.605143 2.153351 -39.213981 131.920077 -9.763549 -3.981134 12.721291 -6.634351 13.795135 -0.000001 0.000001 -0.000000 -0.000001 0.000001 -0.000000 0.000004 0.000001 0.000000 17.924018 15.004739 -0.696579 5.629784 5.302780 -0.176560 5.673433 5.258572 -0.218730 -0.927165 5.105816 -0.252279 -18.904813 26.966792 -13.564210 -0.000000 -0.000000 0.000000 -0.000000 -0.000000 0.000000 -0.000000 -0.000000 0.000000 -0.020930 3.503417 0.342463 -49.376018 14.556627 -82.932635 0.000050 -107.997291 0.000054 -113.477166 -14.992883 11.123947 4.220439 9.693416 4.088442 18.987642 -1.416352 5.044792 0.000000 -0.000000 0.000001 -0.031395 4.105601 -35.578428 2.837459 5.017631 -58.955031 -0.000001 0.000001 -0.000003 0.578013 5.622865 -52.123957 3.153433 5.194006 -62.504284 -0.000001 0.000001 -0.000001 0.008768 5.886532 -62.533210 3.968307 5.540882 -71.199046 -0.000001 -0.000001 -0.000002 -6.339455 4.919947 -73.907032 3.276272 5.255873 -63.853171 0.000001 -0.000000 0.000001 0.000000 0.000004 -0.000001 0.460370 1.675416 3.464134 -43.108493 44.123483 65.496432 0.000005 116.521320 0.000011 -7.441227 -19.502408 21.537622 -12.167515 -0.483369 12.496086 12.918189 -16.061244 -18.065630 0.000002 0.000002 0.000001 -0.072693 3.416982 1.440503 0.559365 -2.214874 28.344612 -0.000004 -0.000001 0.000003 3.257245 -6.876482 57.336692 6.269183 -4.369871 110.271396 0.000001 0.000001 0.000002 -1.517261 -4.231351 61.788193 5.434542 -4.591975 99.619313 0.000001 0.000001 -0.000001 -1.656434 -4.533878 65.818230 3.589163 -4.533348 76.728521 -0.000000 0.000003 -0.000001 0.000001 0.000001 -0.000001 -0.000002 -0.000002 -0.000000 -0.000002 -0.000002 -0.000000 -0.000002 -0.000002 -0.000000 -0.000002 -0.000002 -0.000000 -0.000002 -0.000002 -0.000000 -0.000002 -0.000001 0.000001 -0.000002 -0.000002 -0.000000 -0.000002 -0.000002 -0.000000 -0.000002 -0.000001 0.000001 -0.000000 0.000002 -0.000002 -0.000000 0.000002 -0.000002 -0.000000 0.000000 -0.000000 
